<?xml version="1.0" encoding="UTF-8" standalone="no"?>
<!-- Created with Inkscape (http://www.inkscape.org/) -->

<svg
   width="57.93272mm"
   height="57.959095mm"
   viewBox="0 0 57.93272 57.959095"
   version="1.1"
   id="svg755"
   inkscape:version="1.2.2 (b0a8486541, 2022-12-01)"
   sodipodi:docname="blank-profile.svg"
   xmlns:inkscape="http://www.inkscape.org/namespaces/inkscape"
   xmlns:sodipodi="http://sodipodi.sourceforge.net/DTD/sodipodi-0.dtd"
   xmlns="http://www.w3.org/2000/svg"
   xmlns:svg="http://www.w3.org/2000/svg">
  <sodipodi:namedview
     id="namedview757"
     pagecolor="#ffffff"
     bordercolor="#666666"
     borderopacity="1.0"
     inkscape:showpageshadow="2"
     inkscape:pageopacity="0.0"
     inkscape:pagecheckerboard="0"
     inkscape:deskcolor="#d1d1d1"
     inkscape:document-units="mm"
     showgrid="false"
     inkscape:zoom="0.84096521"
     inkscape:cx="-857.34819"
     inkscape:cy="253.87495"
     inkscape:window-width="1920"
     inkscape:window-height="1103"
     inkscape:window-x="0"
     inkscape:window-y="60"
     inkscape:window-maximized="1"
     inkscape:current-layer="layer1" />
  <defs
     id="defs752" />
  <g
     inkscape:label="Layer 1"
     inkscape:groupmode="layer"
     id="layer1"
     transform="translate(-86.813292,-64.147569)">
    <circle
       id="circle3313"
       r="18.123266"
       cy="93.176506"
       stroke="#494529"
       cx="115.39773"
       stroke-width="1.13269"
       fill="none" />
    <path
       id="path3373"
       stroke="#cccccc"
       stroke-width="2.11667"
       d="M 143.68548,92.323049 V 65.205904 h -28.05642 v 0.01799 c -15.34398,0.08387 -27.757433,12.5476 -27.757433,27.910895 0,15.416481 12.497593,27.913541 27.913543,27.913541 14.90345,0 27.07746,-11.68029 27.87121,-26.385837 0,0 0.037,-2.069041 0.0291,-2.338916 z"
       fill="none" />
    <path
       id="path3303"
       d="m 122.77038,92.802379 v -7.484618 h -7.7437 v 0.0056 c -4.23541,0.0231 -7.66147,3.463234 -7.66147,7.704275 0,4.255122 3.44802,7.704274 7.70483,7.704274 4.11376,0 7.4728,-3.223301 7.69245,-7.28355 0,0 0.0113,-0.574481 0.006,-0.647702 z"
       fill="#494529"
       style="stroke-width:0.563219" />
  </g>
</svg>
