<?xml version="1.0" encoding="UTF-8" standalone="no"?>
<!-- Generator: Adobe Illustrator 14.0.0, SVG Export Plug-In . SVG Version: 6.00 Build 43363)  -->

<svg
   id="Layer_1"
   enable-background="new 0 0 944.362 846.552"
   sodipodi:docname="logo.svg"
   xml:space="preserve"
   viewBox="0 0 218.95837 219.058"
   version="1.1"
   y="0px"
   x="0px"
   inkscape:version="1.1.1 (3bf5ae0d25, 2021-09-20)"
   width="218.95837"
   height="219.058"
   xmlns:inkscape="http://www.inkscape.org/namespaces/inkscape"
   xmlns:sodipodi="http://sodipodi.sourceforge.net/DTD/sodipodi-0.dtd"
   xmlns="http://www.w3.org/2000/svg"
   xmlns:svg="http://www.w3.org/2000/svg"
   xmlns:rdf="http://www.w3.org/1999/02/22-rdf-syntax-ns#"
   xmlns:cc="http://creativecommons.org/ns#"
   xmlns:dc="http://purl.org/dc/elements/1.1/"><defs
   id="defs107" /><sodipodi:namedview
   id="namedview3397"
   bordercolor="#666666"
   inkscape:pageshadow="2"
   guidetolerance="10"
   pagecolor="#ffffff"
   gridtolerance="10"
   inkscape:window-maximized="0"
   inkscape:zoom="0.788503"
   objecttolerance="10"
   borderopacity="1"
   inkscape:current-layer="Layer_1"
   inkscape:cx="244.76762"
   inkscape:cy="-163.60115"
   inkscape:window-y="0"
   inkscape:window-x="0"
   inkscape:window-width="1802"
   showgrid="false"
   inkscape:pageopacity="0"
   inkscape:window-height="988"
   inkscape:pagecheckerboard="0"
   fit-margin-top="0"
   fit-margin-left="0"
   fit-margin-right="0"
   fit-margin-bottom="0" />
































<path
   id="path3295"
   d="M 129.75,164.33 V 151.041 H 116 v 0.009 c -7.521,0.042 -13.604,6.151 -13.604,13.68 0,7.554 6.125,13.678 13.68,13.678 7.304,0 13.271,-5.722 13.658,-12.931 -0.01,0 0.01,-1.02 0.01,-1.15 z"
   fill="#494529" />
<path
   id="path3297"
   d="m 163.84,152.48 v -13.289 h -13.749 v 0.008 c -7.521,0.043 -13.604,6.151 -13.604,13.681 0,7.555 6.126,13.679 13.681,13.679 7.303,0 13.271,-5.724 13.657,-12.932 -0.01,0 0.01,-1.01 0.01,-1.15 z"
   fill="#494529" />
<path
   id="path3299"
   d="m 179.79,120.09 v -13.289 h -13.751 v 0.009 c -7.52,0.042 -13.603,6.149 -13.603,13.68 0,7.554 6.124,13.678 13.681,13.678 7.303,0 13.269,-5.722 13.658,-12.931 0,-0.01 0.02,-1.02 0.01,-1.15 z"
   fill="#494529" />
<path
   id="path3301"
   d="M 175.44,80.44 V 67.151 h -13.75 v 0.01 c -7.52,0.041 -13.603,6.149 -13.603,13.679 0,7.555 6.124,13.679 13.68,13.679 7.304,0 13.27,-5.723 13.657,-12.932 0,-0.01 0.02,-1.02 0.01,-1.15 z"
   fill="#494529" />
<path
   id="path3303"
   d="M 144.25,55.53 V 42.241 h -13.749 v 0.01 c -7.52,0.041 -13.603,6.149 -13.603,13.679 0,7.555 6.122,13.679 13.68,13.679 7.304,0 13.268,-5.723 13.658,-12.932 0,0 0.02,-1.02 0.01,-1.15 z"
   fill="#494529" />
<path
   id="path3305"
   d="M 107.26,56.98 V 43.691 H 93.509 V 43.7 c -7.52,0.042 -13.603,6.149 -13.603,13.681 0,7.553 6.124,13.677 13.679,13.677 7.303,0 13.271,-5.722 13.659,-12.931 0,0 0.02,-1.01 0.01,-1.15 z"
   fill="#494529" />
<path
   id="path3307"
   d="M 78.25,80.92 V 67.63 H 64.501 v 0.009 c -7.521,0.042 -13.604,6.15 -13.604,13.68 0,7.553 6.125,13.678 13.68,13.678 7.304,0 13.271,-5.722 13.658,-12.931 -0.01,0 0.01,-1.02 0.01,-1.15 z"
   fill="#494529" />
<path
   id="path3309"
   d="M 75.11,119.36 V 106.07 H 61.36 v 0.01 c -7.521,0.041 -13.604,6.15 -13.604,13.679 0,7.555 6.126,13.679 13.681,13.679 7.303,0 13.271,-5.723 13.657,-12.93 -0.01,0 0.01,-1.02 0.01,-1.15 z"
   fill="#494529" />
<path
   id="path3311"
   d="M 94.21,153.21 V 139.921 H 80.46 v 0.011 c -7.52,0.041 -13.604,6.149 -13.604,13.679 0,7.554 6.125,13.679 13.681,13.679 7.304,0 13.27,-5.724 13.657,-12.932 -0.01,0 0.01,-1.02 0.01,-1.15 z"
   fill="#494529" />
<circle
   id="circle3313"
   r="32.178001"
   cy="109.17001"
   stroke="#494529"
   cx="115.49001"
   stroke-width="2.0111"
   fill="none" />



























<path
   id="path3373"
   stroke="#cccccc"
   stroke-width="8"
   d="M 214.95,106.49 V 4 H 108.91 V 4.068 C 50.917,4.385 4,51.492 4,109.558 c 0,58.267 47.235,105.5 105.5,105.5 56.328,0 102.34,-44.146 105.34,-99.726 0,0 0.14,-7.82 0.11,-8.84 z"
   fill="none" />











<metadata
   id="metadata104"><rdf:RDF><cc:Work><dc:format>image/svg+xml</dc:format><dc:type
         rdf:resource="http://purl.org/dc/dcmitype/StillImage" /><cc:license
         rdf:resource="http://creativecommons.org/publicdomain/zero/1.0/" /><dc:publisher><cc:Agent
           rdf:about="http://openclipart.org/"><dc:title>Openclipart</dc:title></cc:Agent></dc:publisher><dc:date>2012-03-26T19:24:43</dc:date><dc:description>After going nuts looking for some icons to represent these group activities, I decided to make some. These are using a stylised petal shape but the principle can be adapted into another shape. One of the 'debate' versions initially looked like two people having a punch up being egged on by the crowd. Filled in shapes indicate full participation, hollow ones are passive, half-half are contributing to the activity.\n\nIf anyone wants these saved separately, just message me\n</dc:description><dc:source>https://openclipart.org/detail/169150/group-icons-by-londonlime</dc:source><dc:creator><cc:Agent><dc:title>londonlime</dc:title></cc:Agent></dc:creator><dc:subject><rdf:Bag><rdf:li>classes</rdf:li><rdf:li>concert</rdf:li><rdf:li>conferences</rdf:li><rdf:li>debate</rdf:li><rdf:li>festival</rdf:li><rdf:li>film</rdf:li><rdf:li>forum</rdf:li><rdf:li>icons</rdf:li><rdf:li>screenings</rdf:li><rdf:li>workshops</rdf:li></rdf:Bag></dc:subject></cc:Work><cc:License
       rdf:about="http://creativecommons.org/publicdomain/zero/1.0/"><cc:permits
         rdf:resource="http://creativecommons.org/ns#Reproduction" /><cc:permits
         rdf:resource="http://creativecommons.org/ns#Distribution" /><cc:permits
         rdf:resource="http://creativecommons.org/ns#DerivativeWorks" /></cc:License></rdf:RDF></metadata></svg>
